HIERARCHY
ROOT hip
{
	OFFSET 0.000000 0.000000 0.000000 
	CHANNELS 6 Xposition Yposition Zposition Zrotation Xrotation Yrotation
	JOINT abdomen
	{
		OFFSET 0.000000 3.402643 0.000000 
		CHANNELS 3 Zrotation Xrotation Yrotation
		JOINT chest
		{
			OFFSET 0.000000 8.438565 -0.680529 
			CHANNELS 3 Zrotation Xrotation Yrotation
			JOINT neck
			{
				OFFSET 0.000000 10.207942 -0.272212 
				CHANNELS 3 Zrotation Xrotation Yrotation
				JOINT head
				{
					OFFSET 0.000000 3.130431 0.000000 
					CHANNELS 3 Zrotation Xrotation Yrotation
					End Site
					{
						OFFSET 0.000000 3.130435 0.000000 
					}
				}
			}
			JOINT lCollar
			{
				OFFSET 3.470700 6.669187 -0.816635 
				CHANNELS 3 Zrotation Xrotation Yrotation
				JOINT lShldr
				{
					OFFSET 3.198488 0.000000 0.000000 
					CHANNELS 3 Zrotation Xrotation Yrotation
					JOINT lForeArm
					{
						OFFSET 10.139888 0.000000 0.000000 
						CHANNELS 3 Zrotation Xrotation Yrotation
						JOINT lHand
						{
							OFFSET 8.370511 0.000000 0.000000 
							CHANNELS 3 Zrotation Xrotation Yrotation
							End Site
							{
								OFFSET 4.083176 0.000000 0.000000 
							}
						}
					}
				}
			}
			JOINT rCollar
			{
				OFFSET -3.470700 6.669187 -0.816635 
				CHANNELS 3 Zrotation Xrotation Yrotation
				JOINT rShldr
				{
					OFFSET -3.198488 0.000000 0.000000 
					CHANNELS 3 Zrotation Xrotation Yrotation
					JOINT rForeArm
					{
						OFFSET -10.139888 0.000000 0.000000 
						CHANNELS 3 Zrotation Xrotation Yrotation
						JOINT rHand
						{
							OFFSET -8.370511 0.000000 0.000000 
							CHANNELS 3 Zrotation Xrotation Yrotation
							End Site
							{
								OFFSET -4.083176 0.000000 0.000000 
							}
						}
					}
				}
			}
		}
	}
	JOINT lThigh
	{
		OFFSET 5.308129 -1.633274 1.361059 
		CHANNELS 3 Zrotation Xrotation Yrotation
		JOINT lShin
		{
			OFFSET -2.041588 -20.007561 0.000000 
			CHANNELS 3 Zrotation Xrotation Yrotation
			JOINT lFoot
			{
				OFFSET 0.000000 -19.190928 -1.224953 
				CHANNELS 3 Zrotation Xrotation Yrotation
				End Site
				{
					OFFSET 0.000000 -2.449906 4.627600 
				}
			}
		}
	}
	JOINT rThigh
	{
		OFFSET -5.308129 -1.633274 1.361059 
		CHANNELS 3 Zrotation Xrotation Yrotation
		JOINT rShin
		{
			OFFSET 2.041588 -20.007561 0.000000 
			CHANNELS 3 Zrotation Xrotation Yrotation
			JOINT rFoot
			{
				OFFSET 0.000000 -19.190928 -1.224953 
				CHANNELS 3 Zrotation Xrotation Yrotation
				End Site
				{
					OFFSET 0.000000 -2.449906 4.627600 
				}
			}
		}
	}
}
MOTION
Frames: 10
Frame Time: 0.033333
-2.780344 40.706661 0.348210 -5.348161 20.163128 1.915716 -0.000000 -0.000002 -0.000000 -0.000000 -0.000003 -0.000000 -0.000000 -0.000003 -0.000000 4.037095 -28.855806 0.974244 19.344957 -22.555792 2.428269 -71.635948 6.294397 3.959453 -9.129935 -4.504220 -54.178989 5.932204 -0.060074 -3.367898 6.219888 -24.547171 5.657355 44.612415 -13.120419 -17.361561 -4.229996 19.192665 59.893421 -6.002441 -0.034738 3.336427 35.136841 -59.447117 16.111540 -15.378874 76.561104 7.539994 -13.943952 -26.642487 -11.587541 -3.703136 -67.661011 12.195683 43.226986 67.226929 -29.831793 -0.735842 -19.419954 -24.572561 
-2.789785 39.591213 0.266727 -5.348161 20.163128 1.915716 -0.000000 -0.000002 -0.000000 -0.000000 -0.000003 -0.000000 -0.000000 -0.000003 -0.000000 4.037095 -28.855806 0.974244 19.627743 -22.528688 2.453951 -76.128784 4.438462 7.228824 -8.961980 -4.898471 -55.400707 5.958338 -0.054382 -3.374531 8.142424 -24.169828 -0.148326 44.712700 -12.463279 -15.571220 -1.555547 21.669905 53.941631 -6.002441 -0.034738 3.336427 39.167912 -62.438297 19.536928 -21.594215 80.461967 12.874335 -13.828588 -29.368450 -9.452920 -5.094838 -70.704720 10.590375 52.951969 69.811378 -38.762299 -2.010649 -22.450380 -24.285290 
-2.801599 38.153683 0.164774 -5.348161 20.163128 1.915716 -0.000000 -0.000002 -0.000000 -0.000000 -0.000003 -0.000000 -0.000000 -0.000003 -0.000000 4.037095 -28.855806 0.974244 20.069128 -22.485538 2.486846 -81.453804 2.145156 11.297082 -8.720030 -5.398324 -57.027634 5.995964 -0.052185 -3.396539 10.743691 -24.526182 -7.220237 44.742050 -11.586229 -13.303237 2.401380 24.251787 46.464745 -6.002441 -0.034738 3.336427 44.048965 -66.399567 24.254717 -29.052065 85.834389 20.065804 -14.603156 -32.946537 -7.165363 -7.394403 -74.627243 7.954936 68.499214 72.063034 -53.368729 -3.836514 -26.150639 -24.345190 
-2.812188 37.020039 0.073389 -5.348161 20.163128 1.915716 -0.000000 -0.000002 -0.000000 -0.000000 -0.000003 -0.000000 -0.000000 -0.000003 -0.000000 4.037095 -28.855806 0.974244 20.179750 -22.481102 2.495131 -85.985527 0.106195 15.029322 -8.768798 -5.884987 -58.085182 6.011186 -0.057697 -3.396204 13.108292 -25.623909 -13.371034 44.870979 -10.882050 -11.399056 7.006982 25.886198 38.622639 -6.002441 -0.034738 3.336427 48.895767 -69.777458 29.098442 -148.173157 89.000046 139.086227 -15.415313 -36.011208 -5.304602 -10.831845 -77.693565 4.208645 82.594727 72.988342 -66.712929 -5.166040 -29.422237 -24.409512 
-2.817935 36.894123 0.023800 -5.348161 20.163128 1.915716 -0.000000 -0.000002 -0.000000 -0.000000 -0.000003 -0.000000 -0.000000 -0.000003 -0.000000 4.037095 -28.855806 0.974244 19.344957 -22.555792 2.428269 -88.452866 -1.013216 17.356312 -9.536896 -6.186383 -57.380398 5.932204 -0.060074 -3.367898 14.382353 -26.522192 -16.605017 45.488708 -10.857079 -10.711514 11.120042 25.910250 31.417036 -6.002441 -0.034738 3.336427 50.222149 -71.308311 30.280167 175.234283 88.353607 175.527557 -15.525616 -36.705559 -3.829496 -14.037053 -78.040855 1.048341 84.179993 72.543488 -68.009377 -5.781639 -30.652966 -23.546549 
-2.816281 38.264637 0.038053 -5.348161 20.163128 1.915716 -0.000000 -0.000002 -0.000000 -0.000000 -0.000003 -0.000000 -0.000000 -0.000003 -0.000000 4.037095 -28.855806 0.974244 17.147221 -22.732410 2.266760 -88.066780 -0.835470 17.492151 -11.363571 -6.400297 -54.078030 5.719163 -0.052302 -3.293467 14.019393 -26.240856 -15.687462 46.838051 -11.868742 -11.838673 13.568065 24.324251 25.766304 -6.002441 -0.034738 3.336427 43.584099 -70.169563 23.728308 2.527571 87.116493 -11.335264 -15.512452 -34.448486 -3.301952 -13.369689 -74.490891 2.153894 68.367180 70.480080 -52.695316 -5.337634 -28.505606 -21.217089 
-2.809209 40.709312 0.099094 -5.348161 20.163128 1.915716 -0.000000 -0.000002 -0.000000 -0.000000 -0.000003 -0.000000 -0.000000 -0.000003 -0.000000 4.037095 -28.855806 0.974244 13.996361 -22.972383 2.013699 -85.593918 0.300401 15.996320 -13.950599 -6.931370 -48.891079 5.416866 -0.036884 -3.163819 12.456880 -25.232521 -11.653098 48.549892 -13.584873 -14.324983 14.433275 21.891674 21.458620 -6.002441 -0.034738 3.336427 34.211739 -66.492531 14.666989 -5.868079 77.386833 -2.531011 -13.803793 -28.516008 -2.786107 -11.757219 -68.116875 4.611434 47.654205 65.036110 -32.932129 -3.452992 -24.229462 -18.206636 
-2.799398 43.661541 0.183756 -5.348161 20.163128 1.915716 -0.000000 -0.000002 -0.000000 -0.000000 -0.000003 -0.000000 -0.000000 -0.000003 -0.000000 4.037095 -28.855806 0.974244 10.403180 -23.209764 1.707103 -81.950821 1.956937 13.680004 -16.813110 -8.107203 -42.879005 5.072690 -0.021703 -3.028602 10.250575 -24.389175 -5.923058 50.248539 -15.541497 -17.535774 14.272325 19.195747 18.038265 -6.002441 -0.034738 3.336427 26.557882 -61.119789 7.439898 -6.654726 66.703209 -1.472992 -12.505003 -22.184023 -3.567281 -10.739161 -60.386246 6.735715 33.585941 55.770329 -19.937042 -1.121401 -18.643032 -15.112797 
-2.789048 46.643394 0.273082 -5.348161 20.163128 1.915716 -0.000000 -0.000002 -0.000000 -0.000000 -0.000003 -0.000000 -0.000000 -0.000003 -0.000000 4.037095 -28.855806 0.974244 6.855159 -23.407030 1.396201 -77.917938 3.755986 11.157086 -19.521566 -9.922117 -36.928345 4.741155 -0.003506 -2.897262 7.992804 -24.181011 0.296914 51.655842 -17.392677 -20.889091 13.569932 16.648607 15.213580 -6.002441 -0.034738 3.336427 21.561373 -55.191181 2.794841 -6.766098 55.979691 -1.095478 -12.086948 -15.896836 -4.892498 -10.077848 -52.570728 8.624785 26.100470 45.278950 -13.679471 1.242653 -12.712541 -12.632474 
0.000000 48.013634 0.291666 -0.000000 -0.000010 -0.000000 -0.000000 -0.000002 -0.000000 -0.000000 -0.000005 -0.000000 -0.000000 -0.000003 -0.000000 -0.000000 0.000002 -0.000000 -5.687433 -0.268816 2.011537 -72.916130 15.694370 10.279757 -8.697389 3.581342 -19.242247 5.925057 -0.052777 -3.164269 5.677637 -0.269440 -2.021283 72.799240 15.613197 -10.366999 8.647605 3.617823 19.327776 -5.946210 0.006848 3.030608 2.963332 -7.544440 0.921244 -2.614890 14.781290 -0.607971 -0.635742 -7.705554 0.387733 -4.381215 -7.522904 -0.504117 2.443320 14.721364 -0.235172 1.186746 -7.781234 -1.411804 
